<?xml version="1.0" encoding="UTF-8"?>
<svg width="250" height="200" viewBox="0 0 282 243" fill="none" xmlns="http://www.w3.org/2000/svg">
   <g clip-path="url(#clip0_11_3)">
      <path d="M136.432 33.2482H136.172C135.976 33.0996 135.763 32.9696 135.605 32.7839C134.88 31.9202 134.155 31.0565 133.458 30.1742C130.604 26.5522 127.965 22.7815 125.818 18.6859C124.637 16.4291 123.903 14.098 124.08 11.5161C124.2 9.69585 124.656 7.96843 125.548 6.39889C127.5 2.9812 130.4 0.872998 134.303 0.185744C134.731 0.111447 135.158 0.0650105 135.577 0C136.051 0 136.534 0 137.008 0C137.092 0.0185744 137.175 0.0464361 137.259 0.0557233C138.588 0.139308 139.871 0.436499 141.079 0.984445C145.038 2.78616 147.511 5.8138 148.338 10.1045C148.738 12.1663 148.598 14.2187 147.873 16.2062C147.074 18.398 145.893 20.404 144.667 22.3822C142.38 26.0506 139.796 29.5055 136.989 32.7932C136.831 32.9789 136.608 33.0996 136.423 33.2575L136.432 33.2482ZM136.302 5.88809C132.798 5.88809 129.926 8.75784 129.935 12.2313C129.954 15.7418 132.788 18.5744 136.302 18.5744C139.815 18.5744 142.687 15.7047 142.668 12.1941C142.65 8.71141 139.787 5.87881 136.302 5.87881V5.88809Z" fill="#A71A36" />
      <path d="M136.218 36.2294C136.469 41.4953 134.991 44.0028 133.578 45.3216C130.409 48.2657 126.812 46.2318 121.812 49.8259C118.587 52.1384 116.774 55.649 117.425 59.6518C118.066 63.636 121.403 66.6822 125.074 68.0103C130.009 69.7934 135.53 68.2703 140.168 71.1215C144.165 73.5826 146.925 77.9012 146.851 82.6655C146.553 101.361 122.091 94.5717 110.612 95.7512C110.073 95.8069 109.534 95.8812 109.004 95.9927C104.069 97.0236 101.057 102.02 99.5704 106.469C97.3862 113.007 96.7077 121.012 96.9587 127.857C97.4141 140.627 102.768 154.196 116.914 155.904C125.66 156.963 134.88 156.638 143.672 156.36C153.952 156.035 156.972 153.917 159.147 151.679C162.568 148.159 163.042 143.525 163.739 136.801C164.575 128.758 162.688 121.226 165.588 113.388C166.704 110.369 168.581 107.212 171.509 105.651C175.71 103.413 180.812 105.447 183.136 109.366C185.794 113.852 185.924 120.121 183.889 124.867C180.868 131.916 174.353 134.46 173.154 134.897C171.499 135.51 168.321 137.098 164.148 136.801C163.609 136.764 163.172 136.699 162.874 136.652" stroke="#285730" stroke-width="3" stroke-miterlimit="10" />
      <path d="M280.42 181.454H257.89C257.918 201.412 257.956 221.361 257.983 241.319H280.597" stroke="#285730" stroke-width="3" stroke-linecap="round" stroke-linejoin="round" />
      <path d="M267.724 209.677C264.517 209.677 261.311 209.687 258.095 209.696" stroke="#285730" stroke-width="3" stroke-linecap="round" stroke-linejoin="round" />
      <path d="M215.982 181.742H231.123H246.347" stroke="#285730" stroke-width="3" stroke-linecap="round" stroke-linejoin="round" />
      <path d="M231.216 241.607C231.188 221.649 231.151 201.7 231.123 181.742" stroke="#285730" stroke-width="3" stroke-linecap="round" stroke-linejoin="round" />
      <path d="M173.897 181.547H189.029H204.262" stroke="#285730" stroke-width="3" stroke-linecap="round" stroke-linejoin="round" />
      <path d="M189.121 241.421C189.094 221.463 189.056 201.514 189.029 181.556" stroke="#285730" stroke-width="3" stroke-linecap="round" stroke-linejoin="round" />
      <path d="M66.213 241.403C70.3211 221.491 74.4199 201.579 78.528 181.667C84.1325 201.579 89.7463 221.491 95.3508 241.403" stroke="#285730" stroke-width="3" stroke-linecap="round" stroke-linejoin="round" />
      <path d="M73.5741 209.668H85.9542" stroke="#285730" stroke-width="3" stroke-linecap="round" stroke-linejoin="round" />
      <path d="M107.471 181.649H130.66L106.857 241.421H130.242" stroke="#285730" stroke-width="3" stroke-linecap="round" stroke-linejoin="round" />
      <path d="M115.083 209.65H129.396" stroke="#285730" stroke-width="3" stroke-linecap="round" stroke-linejoin="round" />
      <path d="M141.637 241.449C145.745 221.537 149.844 201.625 153.952 181.714C159.556 201.625 165.17 221.537 170.774 241.449" stroke="#285730" stroke-width="3" stroke-linecap="round" stroke-linejoin="round" />
      <path d="M148.821 209.678C153.041 209.668 157.27 209.659 161.489 209.65" stroke="#285730" stroke-width="3" stroke-linecap="round" stroke-linejoin="round" />
      <path d="M31.9261 181.426C31.9261 201.403 31.9261 221.379 31.9168 241.356H54.9017" stroke="#285730" stroke-width="3" stroke-linecap="round" stroke-linejoin="round" />
      <path d="M1.39415 241.245C1.44062 230.128 1.4685 218.955 1.45921 207.755C1.45921 199.22 1.43133 190.713 1.40344 182.234" stroke="#285730" stroke-width="3" stroke-linecap="round" stroke-linejoin="round" />
      <path d="M1.51497 208.823C2.03545 208.972 2.66747 209.111 3.37384 209.213C4.00586 209.306 4.65646 209.352 5.31636 209.352C13.0679 209.352 19.3601 203.121 19.3601 195.44C19.3601 187.76 13.0771 181.528 5.31636 181.528C3.99656 181.528 2.73253 181.723 1.51497 182.057" stroke="#285730" stroke-width="2.98" stroke-linecap="round" stroke-linejoin="round" />
   </g>
   <defs>
      <clipPath id="clip0_11_3">
         <rect width="282" height="243" fill="white" />
      </clipPath>
   </defs>
</svg>
