<svg width="24" height="32" viewBox="0 0 24 32" fill="none" xmlns="http://www.w3.org/2000/svg">
<g clip-path="url(#clip0_19_7)">
<path d="M12.1198 32H11.8657C11.6796 31.8524 11.4614 31.7329 11.3111 31.5572C10.599 30.7279 9.89404 29.8985 9.21058 29.0481C6.41589 25.5585 3.83232 21.9319 1.72825 17.989C0.572438 15.8173 -0.14681 13.5682 0.0249504 11.0837C0.146614 9.33363 0.586751 7.67143 1.46703 6.15331C3.37429 2.86405 6.21908 0.832857 10.0443 0.175708C10.4558 0.105425 10.8745 0.0597408 11.2932 0C11.7584 0 12.2271 0 12.6923 0C12.7746 0.0175708 12.8533 0.0456842 12.9356 0.0491983C14.2382 0.12651 15.4977 0.418186 16.675 0.945311C20.5575 2.68131 22.9729 5.59104 23.7852 9.7237C24.1752 11.7127 24.0393 13.6877 23.3343 15.5959C22.5507 17.7079 21.3984 19.6372 20.1925 21.5348C17.9525 25.0665 15.4226 28.391 12.6744 31.5537C12.5206 31.7294 12.3059 31.8524 12.1198 31.9965V32ZM11.9945 5.67186C8.5629 5.67186 5.74673 8.434 5.76105 11.7795C5.77536 15.1601 8.55574 17.8871 11.991 17.8871C15.4333 17.8871 18.2423 15.125 18.2244 11.7479C18.2101 8.39886 15.4083 5.66484 11.991 5.66835L11.9945 5.67186Z" fill="#A81B36"/>
</g>
<defs>
<clipPath id="clip0_19_7">
<rect width="24" height="32" fill="white"/>
</clipPath>
</defs>
</svg>
